<?xml version="1.0" encoding="UTF-8" standalone="no"?>
<!-- Created with Inkscape (http://www.inkscape.org/) -->

<svg
   width="3900"
   height="1750"
   viewBox="0 0 7.8 3.5"
   version="1.1"
   id="svg1"
   inkscape:version="1.4.2 (ebf0e940d0, 2025-05-08)"
   sodipodi:docname="logo.svg"
   inkscape:export-filename="export/tb-blue-full.png"
   inkscape:export-xdpi="96"
   inkscape:export-ydpi="96"
   xmlns:inkscape="http://www.inkscape.org/namespaces/inkscape"
   xmlns:sodipodi="http://sodipodi.sourceforge.net/DTD/sodipodi-0.dtd"
   xmlns:xlink="http://www.w3.org/1999/xlink"
   xmlns="http://www.w3.org/2000/svg"
   xmlns:svg="http://www.w3.org/2000/svg">
  <sodipodi:namedview
     id="namedview1"
     pagecolor="#ffffff"
     bordercolor="#000000"
     borderopacity="0.25"
     inkscape:showpageshadow="false"
     inkscape:pageopacity="0.0"
     inkscape:pagecheckerboard="0"
     inkscape:deskcolor="#d1d1d1"
     inkscape:document-units="px"
     inkscape:zoom="0.1288905"
     inkscape:cx="2277.1267"
     inkscape:cy="1691.3582"
     inkscape:window-width="1670"
     inkscape:window-height="878"
     inkscape:window-x="0"
     inkscape:window-y="0"
     inkscape:window-maximized="1"
     inkscape:current-layer="svg1"
     showguides="true"
     showgrid="true">
    <inkscape:grid
       id="grid1"
       units="px"
       originx="0.5"
       originy="1.000001"
       spacingx="0.1"
       spacingy="0.1"
       empcolor="#0099e5"
       empopacity="0.30196078"
       color="#0099e5"
       opacity="0.14901961"
       empspacing="5"
       enabled="true"
       visible="true" />
  </sodipodi:namedview>
  <defs
     id="defs1">
    <linearGradient
       id="linearGradient12"
       inkscape:collect="always">
      <stop
         style="stop-color:#2fdc55;stop-opacity:1;"
         offset="0"
         id="stop11" />
      <stop
         style="stop-color:#257018;stop-opacity:1;"
         offset="1"
         id="stop12" />
    </linearGradient>
    <linearGradient
       inkscape:collect="always"
       xlink:href="#linearGradient12"
       id="linearGradient11"
       gradientUnits="userSpaceOnUse"
       x1="4"
       y1="-9.9092722e-07"
       x2="4"
       y2="3.499999" />
  </defs>
  <path
     style="font-variation-settings:normal;vector-effect:none;fill:url(#linearGradient11);fill-opacity:1;stroke:none;stroke-width:0.002px;stroke-linecap:butt;stroke-linejoin:miter;stroke-miterlimit:4;stroke-dasharray:none;stroke-dashoffset:0;stroke-opacity:1;-inkscape-stroke:none;stop-color:#000000"
     d="m 0.50000018,-9.5367432e-7 c 0,0 -0.49999999804361,0 -0.49999999804361,0.50000000367432 V 1.999999 c 0,0 0,0.5 0.49999999804361,0.5 H 6.0000001 l 1,1 v -1 h 0.3 c 0,0 0.5,0 0.5,-0.5 V 0.49999905 c 0,0 0,-0.50000000367432 -0.5,-0.50000000367432 z"
     id="path8-9"
     sodipodi:nodetypes="cscsccccscsc" />
  <g
     inkscape:label="Textbored"
     id="Textbored"
     transform="translate(0.5,-31.916658)"
     style="fill:#ffffff;fill-opacity:1">
    <path
       style="font-variation-settings:normal;opacity:1;vector-effect:none;fill:#ffffff;fill-opacity:1;stroke:none;stroke-width:0.002px;stroke-linecap:butt;stroke-linejoin:miter;stroke-miterlimit:4;stroke-dasharray:none;stroke-dashoffset:0;stroke-opacity:1;-inkscape-stroke:none;stop-color:#000000;stop-opacity:1"
       d="m 0.1,32.416657 h 0.2 v 0.5 h 0.40000002 v 0.2 H 0.3 v 0.6 H 0.70000002 L 0.5,33.916657 H 0.3 c 0,0 -0.2,0 -0.2,-0.2 0,-0.2 0,-0.6 0,-0.6 H 0 v -0.2 h 0.1 z"
       id="path1" />
    <path
       style="font-variation-settings:normal;vector-effect:none;fill:#ffffff;fill-opacity:1;stroke:none;stroke-width:0.002px;stroke-linecap:butt;stroke-linejoin:miter;stroke-miterlimit:4;stroke-dasharray:none;stroke-dashoffset:0;stroke-opacity:1;-inkscape-stroke:none;stop-color:#000000"
       d="m 2.35,32.416657 h 0.2 v 0.5 h 0.4000001 v 0.2 H 2.55 v 0.6 h 0.2000001 l 0.2,0.2 H 2.55 c 0,0 -0.2,0 -0.2,-0.2 v -0.6 h -0.1 v -0.2 h 0.1 z"
       id="path1-1"
       sodipodi:nodetypes="ccccccccccsccccc" />
    <path
       id="path1-1-3"
       style="font-variation-settings:normal;vector-effect:none;fill:#ffffff;fill-opacity:1;stroke:none;stroke-width:0.002px;stroke-linecap:butt;stroke-linejoin:miter;stroke-miterlimit:4;stroke-dasharray:none;stroke-dashoffset:0;stroke-opacity:1;-inkscape-stroke:none;stop-color:#000000"
       d="m 3,32.416657 v 1.3 c 0,0.2 0.2,0.2 0.2,0.2 h 0.3 c 0.2,0 0.2,-0.2 0.2,-0.2 l -1e-7,-0.6 c 0,0 1e-7,-0.2 -0.1999999,-0.2 H 3.2 v -0.5 z m 0.2,0.7 h 0.3 v 0.6 H 3.2 Z"
       sodipodi:nodetypes="csccccccccccccc" />
    <path
       id="path1-1-3-2"
       style="font-variation-settings:normal;vector-effect:none;fill:#ffffff;fill-opacity:1;stroke:none;stroke-width:0.002px;stroke-linecap:butt;stroke-linejoin:miter;stroke-miterlimit:4;stroke-dasharray:none;stroke-dashoffset:0;stroke-opacity:1;-inkscape-stroke:none;stop-color:#000000"
       d="m 6.7,32.416657 v 1.3 c 0,0.2 -0.2,0.2 -0.2,0.2 H 6.2 c -0.2,0 -0.2,-0.2 -0.2,-0.2 l 1e-7,-0.6 c 0,0 -1e-7,-0.2 0.1999999,-0.2 h 0.3 v -0.5 z m -0.2,0.7 H 6.2 v 0.6 h 0.3 z"
       sodipodi:nodetypes="csccccccccccccc" />
    <path
       id="path4"
       style="font-variation-settings:normal;opacity:1;vector-effect:none;fill:#ffffff;fill-opacity:1;stroke:none;stroke-width:0.002px;stroke-linecap:butt;stroke-linejoin:miter;stroke-miterlimit:4;stroke-dasharray:none;stroke-dashoffset:0;stroke-opacity:1;-inkscape-stroke:none;stop-color:#000000;stop-opacity:1"
       d="m 0.95000002,32.916657 c 0,0 -0.2,0 -0.2,0.2 v 0.6 c 0,0 2e-8,0.2 0.2,0.2 H 1.25 c 0.2,0 0.2,-0.2 0.2,-0.2 H 0.95000002 v -0.3 H 1.45 v -0.3 c 0,0 0,-0.2 -0.2,-0.2 z m 0,0.2 H 1.25 v 0.2 H 0.95000002 Z" />
    <path
       id="path4-6"
       style="font-variation-settings:normal;vector-effect:none;fill:#ffffff;fill-opacity:1;stroke:none;stroke-width:0.002px;stroke-linecap:butt;stroke-linejoin:miter;stroke-miterlimit:4;stroke-dasharray:none;stroke-dashoffset:0;stroke-opacity:1;-inkscape-stroke:none;stop-color:#000000"
       d="m 5.4500001,32.916657 c 0,0 -0.2,0 -0.2,0.2 v 0.6 c 0,0 0,0.2 0.2,0.2 h 0.3 c 0.2,0 0.2,-0.2 0.2,-0.2 h -0.5 v -0.3 h 0.5 v -0.3 c 0,0 0,-0.2 -0.2,-0.2 z m 0,0.2 h 0.3 v 0.2 h -0.3 z" />
    <path
       id="path5"
       style="font-variation-settings:normal;opacity:1;vector-effect:none;fill:#ffffff;fill-opacity:1;stroke:none;stroke-width:0.002px;stroke-linecap:butt;stroke-linejoin:miter;stroke-miterlimit:4;stroke-dasharray:none;stroke-dashoffset:0;stroke-opacity:1;-inkscape-stroke:none;stop-color:#000000;stop-opacity:1"
       d="m 1.5,32.916657 0.5,1 h 0.2 l -0.5,-1 z m 0.5,0 -0.1,0.3 0.1,0.2 0.2,-0.5 z m -0.3,0.5 -0.2,0.5 h 0.2 l 0.1,-0.3 z" />
    <path
       id="path6"
       style="font-variation-settings:normal;opacity:1;vector-effect:none;fill:#ffffff;fill-opacity:1;stroke:none;stroke-width:0.002px;stroke-linecap:butt;stroke-linejoin:miter;stroke-miterlimit:4;stroke-dasharray:none;stroke-dashoffset:0;stroke-opacity:1;-inkscape-stroke:none;stop-color:#000000;stop-opacity:1"
       d="m 3.9500001,32.916657 c 0,0 -0.2,0 -0.2,0.2 v 0.6 c 0,0 1e-7,0.2 0.2,0.2 h 0.3 c 0,0 0.2,0 0.2,-0.2 v -0.6 c 0,0 0,-0.2 -0.2,-0.2 z m 0,0.2 h 0.3 v 0.6 h -0.3 z" />
    <path
       style="font-variation-settings:normal;opacity:1;vector-effect:none;fill:#ffffff;fill-opacity:1;stroke:none;stroke-width:0.002px;stroke-linecap:butt;stroke-linejoin:miter;stroke-miterlimit:4;stroke-dasharray:none;stroke-dashoffset:0;stroke-opacity:1;-inkscape-stroke:none;stop-color:#000000;stop-opacity:1"
       d="m 4.5000001,32.916657 v 1 h 0.2 l -10e-8,-0.7 c 0,-0.1 0.3,-0.1 0.5,-0.1 10e-8,-0.06667 10e-8,-0.133333 10e-8,-0.2 -0.2000001,0 -0.5000001,0 -0.5000001,0.1 v -0.1 z"
       id="path7"
       sodipodi:nodetypes="ccccccccc" />
  </g>
</svg>
